<svg xmlns="http://www.w3.org/2000/svg" viewBox="0 0 24 24" id="asics-tiger">
  <path d="M24 8c-7.034.105-10.602.42-15.474 1.801L5.541 8H3.054l3.585 2.483-1.167.542L1.939 8H.051l3.637 4.039C1.853 13.351.806 14.496 0 16h4.014c.253-.367.992-1.312 1.595-1.827L7.257 16h3.98c.532-.664.738-.848 1.304-1.373L14.53 16h4.083l-4.546-2.754C17.685 10.236 24 9.259 24 9.259V8zM9.041 14.103l-1.578-1.346 1.338-.769 1.441 1.014c-.286.246-1.015.927-1.201 1.101zm8.354-4.547c-2.762.839-3.843 1.381-5.472 2.326l-1.234-.711c2.316-.927 4.219-1.335 6.775-1.632l-.069.017z"></path>
</svg>
